# xmcd
#
# Track frame offsets:
#	150
#	48400
#	71325
#	91745
#	129942
#	150312
#
# Disc length: 2307 seconds
#
# Revision: 1
# Processed by: cddbd v1.5.2PL0 Copyright (c) Steve Scherf et al.
# Submitted via: audiograbber 1.83.01
#
DISCID=3b090106
DTITLE=Wilder, Joe - Wilder 'n wilder
DYEAR=1956
DGENRE=Jazz
TTITLE0=Cherokee
TTITLE1=Prelude to a kiss
TTITLE2=My heart stood still
TTITLE3=Six bit blues
TTITLE4=Mad about the boy
TTITLE5=Darn that dream
EXTD=
EXTT0=
EXTT1=
EXTT2=
EXTT3=
EXTT4=
EXTT5=
PLAYORDER=
